<?xml version="1.0" encoding="UTF-8" standalone="no"?>
<!DOCTYPE svg PUBLIC "-//W3C//DTD SVG 1.1//EN" "http://www.w3.org/Graphics/SVG/1.1/DTD/svg11.dtd">
<svg version="1.1" xmlns="http://www.w3.org/2000/svg" xmlns:xlink="http://www.w3.org/1999/xlink" preserveAspectRatio="xMidYMid meet" viewBox="219 199 164 144" width="160" height="140"><defs><path d="M340 340L340 200L220 200L220 340" id="a3TJT0h8Vw"></path><path d="M260 320L300 320L300 340L260 340L260 320Z" id="e19Pn28hk0"></path><path d="M300 320L285 310L285 215L275 215L275 310" id="k4TZJiDfYE"></path><path d="M285 310L285 320L275 320L275 310" id="a2vhHNzFCC"></path><path d="" id="aG7YRCWg7"></path><path d="M285 305L340 340L340 335L285 300" id="a17xq5E9B"></path><path d="M355 340L375 340L375 320L355 320L355 335L340 335" id="an11Z9HSw"></path><path d="M340 340L355 340" id="b2EyToXJY"></path><path d="M373.5 340L380 340L380 270L355 270L355 320" id="d2JEb1QQUb"></path><path d="" id="b2tqAOc6Z"></path><path d="M360 330L362.5 325L365 322.5" id="aHwMKk7Ga"></path><path d="" id="aFAY2LMRu"></path><path d="" id="g7o22O8M4"></path><path d="M361.71 326.1L359.09 330.47L358.84 334.1L361.09 337.5L370 337.5L372.5 330.35L371.21 326.1L369.34 330L367.84 325L365 322.5L361.71 326.1Z" id="f6KDlhK0Np"></path><path d="M367.5 337.5L367.5 332.97L365.96 329.6L363.84 331.35L362.5 337.5" id="a6njn2H7x"></path></defs><g><g><g><use xlink:href="#a3TJT0h8Vw" opacity="1" fill-opacity="0" stroke="#000000" stroke-width="1" stroke-opacity="1"></use></g></g><g><g><use xlink:href="#e19Pn28hk0" opacity="1" fill-opacity="0" stroke="#000000" stroke-width="1" stroke-opacity="1"></use></g></g><g><g><use xlink:href="#k4TZJiDfYE" opacity="1" fill-opacity="0" stroke="#000000" stroke-width="1" stroke-opacity="1"></use></g></g><g><g><use xlink:href="#a2vhHNzFCC" opacity="1" fill-opacity="0" stroke="#000000" stroke-width="1" stroke-opacity="1"></use></g></g><g><g><use xlink:href="#aG7YRCWg7" opacity="1" fill-opacity="0" stroke="#000000" stroke-width="1" stroke-opacity="1"></use></g></g><g><g><use xlink:href="#a17xq5E9B" opacity="1" fill-opacity="0" stroke="#000000" stroke-width="1" stroke-opacity="1"></use></g></g><g><g><use xlink:href="#an11Z9HSw" opacity="1" fill-opacity="0" stroke="#000000" stroke-width="1" stroke-opacity="1"></use></g></g><g><g><use xlink:href="#b2EyToXJY" opacity="1" fill-opacity="0" stroke="#000000" stroke-width="1" stroke-opacity="1"></use></g></g><g><g><use xlink:href="#d2JEb1QQUb" opacity="1" fill-opacity="0" stroke="#000000" stroke-width="1" stroke-opacity="1"></use></g></g><g><use xlink:href="#b2tqAOc6Z" opacity="1" fill="#ea180b" fill-opacity="1"></use><g><use xlink:href="#b2tqAOc6Z" opacity="1" fill-opacity="0" stroke="#ff0000" stroke-width="1" stroke-opacity="1"></use></g></g><g><g><use xlink:href="#aHwMKk7Ga" opacity="1" fill-opacity="0" stroke="#000000" stroke-width="0" stroke-opacity="1"></use></g></g><g><use xlink:href="#aFAY2LMRu" opacity="1" fill="#ff0000" fill-opacity="1"></use><g><use xlink:href="#aFAY2LMRu" opacity="1" fill-opacity="0" stroke="#000000" stroke-width="0" stroke-opacity="1"></use></g></g><g><use xlink:href="#g7o22O8M4" opacity="1" fill="#008f8d" fill-opacity="1"></use><g><use xlink:href="#g7o22O8M4" opacity="1" fill-opacity="0" stroke="#000000" stroke-width="1" stroke-opacity="1"></use></g></g><g><use xlink:href="#f6KDlhK0Np" opacity="1" fill="#ff0000" fill-opacity="1"></use><g><use xlink:href="#f6KDlhK0Np" opacity="1" fill-opacity="0" stroke="#cc3333" stroke-width="0" stroke-opacity="1"></use></g></g><g><use xlink:href="#a6njn2H7x" opacity="1" fill="#ffffff" fill-opacity="1"></use><g><use xlink:href="#a6njn2H7x" opacity="1" fill-opacity="0" stroke="#cc3333" stroke-width="0" stroke-opacity="1"></use></g></g></g></svg>